<?xml version="1.0" encoding="UTF-8" ?>
<!DOCTYPE svg PUBLIC "-//W3C//DTD SVG 1.1//EN" "http://www.w3.org/Graphics/SVG/1.1/DTD/svg11.dtd">
<svg width="925pt" height="238pt" viewBox="0 0 925 238" version="1.1" xmlns="http://www.w3.org/2000/svg">
<g id="#ffffffff">
<path fill="#ffffff" opacity="1.00" d=" M 199.45 150.57 C 202.25 150.13 205.12 150.29 207.95 150.44 C 209.75 150.46 211.25 152.16 211.06 153.96 C 211.05 165.33 211.12 176.71 211.02 188.09 C 211.19 190.80 208.32 191.99 206.02 191.61 C 203.17 191.34 198.37 192.79 197.43 188.97 C 197.16 177.62 197.41 166.25 197.31 154.90 C 197.13 153.18 197.77 151.31 199.45 150.57 Z" />
<path fill="#ffffff" opacity="1.00" d=" M 230.39 150.57 C 233.88 150.91 239.52 148.75 241.21 152.99 C 241.57 164.68 241.09 176.39 241.21 188.09 C 241.47 190.91 238.37 192.13 236.03 191.76 C 233.19 191.59 228.46 192.71 227.59 188.96 C 227.32 177.31 227.65 165.63 227.65 153.97 C 227.50 152.38 228.74 150.64 230.39 150.57 Z" />
<path fill="#ffffff" opacity="1.00" d=" M 259.22 151.22 C 261.84 149.88 265.07 150.62 267.95 150.53 C 269.89 150.38 271.74 152.14 271.51 154.12 C 271.48 165.81 271.74 177.52 271.31 189.20 C 270.54 192.56 266.55 191.60 264.04 191.77 C 261.78 191.80 258.30 192.05 257.87 189.05 C 257.60 178.39 257.92 167.70 257.76 157.03 C 257.89 155.07 257.30 152.51 259.22 151.22 Z" />
</g>
<g id="#ffe100ff">
<path fill="#ffe100" opacity="1.00" d=" M 14.75 24.00 C 298.50 24.00 582.25 24.01 866.00 24.00 C 866.00 30.00 866.00 36.00 866.00 42.00 C 624.68 42.00 383.36 42.00 142.05 42.00 C 106.53 41.44 71.00 41.95 35.48 41.69 C 35.54 63.46 35.48 85.23 35.51 107.00 C 64.59 107.01 93.67 106.98 122.76 107.01 C 122.76 112.87 122.72 118.72 122.78 124.58 C 93.64 124.31 64.50 124.74 35.36 124.36 C 35.70 152.56 35.39 180.77 35.52 208.97 C 28.60 209.03 21.67 208.99 14.75 208.99 C 14.75 147.33 14.74 85.67 14.75 24.00 Z" />
<path fill="#ffe100" opacity="1.00" d=" M 368.69 47.39 C 374.20 47.44 379.71 47.32 385.22 47.47 C 385.05 101.31 385.20 155.15 385.15 208.99 C 379.68 209.00 374.22 209.00 368.75 209.00 C 368.70 155.13 368.83 101.26 368.69 47.39 Z" />
<path fill="#ffe100" opacity="1.00" d=" M 417.91 47.32 C 423.37 47.49 428.84 47.36 434.31 47.39 C 434.17 101.26 434.30 155.13 434.25 209.00 C 428.78 209.00 423.32 209.00 417.85 208.99 C 417.89 155.10 417.77 101.21 417.91 47.32 Z" />
<path fill="#ffe100" opacity="1.00" d=" M 490.89 61.75 C 510.20 57.33 530.45 58.95 549.49 63.93 C 549.54 68.78 549.43 73.63 549.57 78.48 C 535.27 73.97 520.01 72.46 505.08 73.84 C 496.41 74.84 486.85 76.93 481.08 84.06 C 475.61 90.23 475.02 99.16 476.47 106.92 C 478.97 116.37 488.35 121.67 497.13 124.18 C 510.20 127.60 523.92 129.47 535.93 136.03 C 543.47 139.73 549.91 145.93 553.26 153.69 C 557.45 164.12 556.98 176.23 552.38 186.44 C 547.35 197.85 535.80 205.08 524.06 208.07 C 503.33 213.11 481.40 210.91 461.22 204.53 C 461.26 199.72 461.29 194.92 461.19 190.12 C 477.41 195.77 494.90 197.96 511.99 196.02 C 521.30 194.69 531.62 191.29 536.37 182.47 C 539.51 175.61 540.21 167.37 537.69 160.22 C 535.06 153.15 527.89 149.46 521.31 146.82 C 511.45 143.29 501.03 141.76 490.99 138.90 C 480.02 135.28 468.88 129.45 463.05 119.02 C 457.71 108.05 457.51 94.68 462.29 83.48 C 467.48 71.99 478.97 64.69 490.89 61.75 Z" />
<path fill="#ffe100" opacity="1.00" d=" M 825.93 59.93 C 845.13 57.30 866.41 60.44 881.51 73.44 C 887.48 78.29 891.61 85.00 895.26 91.68 C 902.91 108.55 904.66 127.58 903.14 145.89 C 901.89 159.33 899.24 173.17 891.54 184.54 C 886.30 193.51 877.64 200.01 868.30 204.24 C 861.20 207.37 853.45 208.22 845.86 209.35 C 863.96 213.96 882.46 216.68 901.03 218.51 C 900.06 223.07 899.29 227.68 898.48 232.27 C 881.33 230.19 864.29 227.32 847.47 223.39 C 830.26 218.65 812.67 212.91 798.78 201.28 C 792.86 196.87 787.99 191.20 783.95 185.07 C 774.06 168.25 771.51 148.18 772.50 128.98 C 773.13 111.78 776.90 93.71 788.16 80.17 C 797.19 68.42 811.56 62.10 825.93 59.93 M 828.11 74.22 C 818.27 75.78 808.65 80.45 802.09 88.05 C 793.68 98.45 790.81 112.02 789.63 125.03 C 788.90 142.42 789.73 160.94 798.48 176.45 C 801.43 181.07 804.95 185.39 809.48 188.56 C 819.12 195.32 831.39 196.94 842.89 196.25 C 854.78 195.66 866.45 190.30 874.25 181.25 C 883.45 169.30 886.11 153.74 886.37 139.00 C 886.74 122.15 884.96 104.10 874.92 89.97 C 871.56 85.67 867.20 82.20 862.58 79.34 C 852.19 73.43 839.73 72.75 828.11 74.22 Z" />
<path fill="#ffe100" opacity="1.00" d=" M 585.69 100.62 C 586.86 87.40 587.63 74.14 588.81 60.92 C 593.29 61.08 597.77 60.96 602.25 61.00 C 602.22 74.19 602.31 87.37 602.20 100.55 C 614.73 100.38 627.26 100.63 639.78 100.43 C 639.72 104.95 639.75 109.47 639.76 113.99 C 627.25 114.03 614.75 113.97 602.24 114.01 C 602.26 128.67 602.25 143.33 602.25 157.99 C 602.31 165.72 601.86 173.54 603.43 181.17 C 604.68 186.60 608.00 191.81 613.25 194.10 C 622.09 198.25 632.24 196.59 641.49 194.94 C 641.51 199.56 641.47 204.18 641.55 208.79 C 628.94 211.64 615.23 212.12 603.19 206.83 C 595.11 203.26 589.33 195.56 587.54 186.97 C 585.92 180.48 585.67 173.73 585.75 167.07 C 585.76 149.38 585.73 131.70 585.76 114.02 C 578.66 113.95 571.56 114.08 564.46 113.94 C 564.48 109.41 564.62 104.88 564.36 100.36 C 571.46 100.73 578.58 100.28 585.69 100.62 Z" />
<path fill="#ffe100" opacity="1.00" d=" M 690.45 99.69 C 702.80 97.77 716.08 98.76 727.24 104.79 C 738.97 111.15 746.44 123.62 748.59 136.58 C 750.81 149.85 750.99 163.69 747.71 176.81 C 744.58 187.18 738.98 197.57 729.42 203.31 C 717.54 211.03 702.52 212.20 688.87 209.62 C 675.33 207.45 663.07 198.05 657.86 185.31 C 652.41 173.38 651.89 159.93 652.60 147.03 C 653.30 135.32 656.54 123.26 664.23 114.15 C 670.58 106.04 680.47 101.46 690.45 99.69 M 694.57 112.73 C 685.56 113.91 677.32 119.88 673.46 128.10 C 671.24 133.46 670.06 139.19 669.48 144.95 C 668.74 155.63 668.81 166.61 671.85 176.96 C 673.50 183.13 677.45 188.56 682.60 192.28 C 691.59 198.14 703.36 198.81 713.41 195.57 C 721.80 193.06 727.96 185.71 730.50 177.54 C 734.00 167.08 734.06 155.86 733.24 144.97 C 732.02 136.03 729.94 126.36 723.09 119.93 C 715.76 112.56 704.40 111.17 694.57 112.73 Z" />
</g>
<g id="#e7a561ff">
<path fill="#e7a561" opacity="1.00" d=" M 221.33 77.27 C 222.13 75.22 223.94 73.96 225.71 72.80 C 227.02 75.45 229.60 78.20 228.44 81.36 C 226.51 86.81 223.44 91.77 221.05 97.02 C 214.37 109.87 208.73 123.24 201.77 135.95 L 201.09 135.93 C 198.94 134.20 196.64 131.97 196.77 128.98 C 197.04 126.57 198.22 124.41 199.25 122.26 C 206.68 107.30 213.91 92.24 221.33 77.27 Z" />
<path fill="#e7a561" opacity="1.00" d=" M 234.28 78.42 C 235.49 76.08 237.23 74.10 239.55 72.81 C 245.04 82.48 249.18 92.85 254.36 102.69 C 257.78 109.36 260.61 116.32 264.11 122.95 C 265.11 125.17 266.54 127.46 266.23 130.00 C 266.01 132.39 264.11 134.09 262.77 135.92 C 258.23 132.67 256.94 126.96 254.40 122.30 C 247.82 108.53 241.15 94.81 234.58 81.05 C 234.49 80.17 234.40 79.29 234.28 78.42 Z" />
</g>
<g id="#e49542ff">
<path fill="#e49542" opacity="1.00" d=" M 225.71 72.80 C 229.41 72.28 234.12 74.14 234.28 78.42 C 234.40 79.29 234.49 80.17 234.58 81.05 C 228.28 94.92 221.26 108.45 214.70 122.21 C 212.02 126.94 210.76 132.90 205.88 135.98 C 204.51 135.99 203.14 135.98 201.77 135.95 C 208.73 123.24 214.37 109.87 221.05 97.02 C 223.44 91.77 226.51 86.81 228.44 81.36 C 229.60 78.20 227.02 75.45 225.71 72.80 Z" />
<path fill="#e49542" opacity="1.00" d=" M 239.55 72.81 C 242.58 72.55 246.09 73.44 247.54 76.41 C 255.01 91.70 262.31 107.09 269.79 122.39 C 271.00 125.07 272.87 127.90 272.05 130.97 C 271.54 133.30 269.41 134.65 267.77 136.16 C 266.25 136.16 264.73 136.14 263.22 136.11 L 262.77 135.92 C 264.11 134.09 266.01 132.39 266.23 130.00 C 266.54 127.46 265.11 125.17 264.11 122.95 C 260.61 116.32 257.78 109.36 254.36 102.69 C 249.18 92.85 245.04 82.48 239.55 72.81 Z" />
</g>
<g id="#ffe07dff">
<path fill="#ffe07d" opacity="1.00" d=" M 150.13 124.99 C 150.25 123.08 152.13 121.85 153.95 122.13 C 169.05 122.04 184.15 122.18 199.25 122.26 C 198.22 124.41 197.04 126.57 196.77 128.98 C 196.64 131.97 198.94 134.20 201.09 135.93 C 187.14 135.75 173.19 135.90 159.24 135.85 C 156.26 135.53 152.06 137.03 150.26 133.80 C 149.78 130.89 149.90 127.91 150.13 124.99 Z" />
<path fill="#ffe07d" opacity="1.00" d=" M 205.88 135.98 C 210.76 132.90 212.02 126.94 214.70 122.21 C 227.93 122.15 241.17 122.44 254.40 122.30 C 256.94 126.96 258.23 132.67 262.77 135.92 L 263.22 136.11 C 244.10 136.30 224.99 135.74 205.88 135.98 Z" />
<path fill="#ffe07d" opacity="1.00" d=" M 269.79 122.39 C 284.18 122.23 298.56 122.70 312.94 122.37 C 314.38 122.32 315.83 122.49 317.24 122.83 C 314.66 122.93 312.09 123.07 309.52 123.15 C 310.24 127.49 310.33 131.94 309.27 136.24 C 295.44 136.13 281.61 136.11 267.77 136.16 C 269.41 134.65 271.54 133.30 272.05 130.97 C 272.87 127.90 271.00 125.07 269.79 122.39 Z" />
</g>
<g id="#ffd064ff">
<path fill="#ffd064" opacity="1.00" d=" M 309.52 123.15 C 312.09 123.07 314.66 122.93 317.24 122.83 C 320.49 125.40 318.60 130.40 318.85 133.98 C 317.31 137.50 312.90 136.01 309.90 136.28 L 309.27 136.24 C 310.33 131.94 310.24 127.49 309.52 123.15 Z" />
</g>
<g id="#dd636eff">
<path fill="#dd636e" opacity="1.00" d=" M 159.24 135.85 C 173.19 135.90 187.14 135.75 201.09 135.93 L 201.77 135.95 C 203.14 135.98 204.51 135.99 205.88 135.98 C 224.99 135.74 244.10 136.30 263.22 136.11 C 264.73 136.14 266.25 136.16 267.77 136.16 C 281.61 136.11 295.44 136.13 309.27 136.24 L 309.90 136.28 L 310.47 136.66 C 307.36 136.59 304.23 136.44 301.15 136.89 C 297.76 154.77 294.70 172.71 291.55 190.64 C 290.88 194.22 290.44 197.87 289.35 201.36 C 288.48 204.35 285.89 206.29 283.73 208.33 C 249.13 208.15 214.53 208.16 179.93 207.99 C 174.83 208.15 170.08 204.01 169.63 198.90 C 166.14 177.89 162.48 156.90 159.24 135.85 M 199.45 150.57 C 197.77 151.31 197.13 153.18 197.31 154.90 C 197.41 166.25 197.16 177.62 197.43 188.97 C 198.37 192.79 203.17 191.34 206.02 191.61 C 208.32 191.99 211.19 190.80 211.02 188.09 C 211.12 176.71 211.05 165.33 211.06 153.96 C 211.25 152.16 209.75 150.46 207.95 150.44 C 205.12 150.29 202.25 150.13 199.45 150.57 M 230.39 150.57 C 228.74 150.64 227.50 152.38 227.65 153.97 C 227.65 165.63 227.32 177.31 227.59 188.96 C 228.46 192.71 233.19 191.59 236.03 191.76 C 238.37 192.13 241.47 190.91 241.21 188.09 C 241.09 176.39 241.57 164.68 241.21 152.99 C 239.52 148.75 233.88 150.91 230.39 150.57 M 259.22 151.22 C 257.30 152.51 257.89 155.07 257.76 157.03 C 257.92 167.70 257.60 178.39 257.87 189.05 C 258.30 192.05 261.78 191.80 264.04 191.77 C 266.55 191.60 270.54 192.56 271.31 189.20 C 271.74 177.52 271.48 165.81 271.51 154.12 C 271.74 152.14 269.89 150.38 267.95 150.53 C 265.07 150.62 261.84 149.88 259.22 151.22 Z" />
</g>
<g id="#da4a54ff">
<path fill="#da4a54" opacity="1.00" d=" M 301.15 136.89 C 304.23 136.44 307.36 136.59 310.47 136.66 C 306.14 157.66 302.94 178.92 299.00 200.01 C 298.31 204.02 294.93 207.36 290.95 208.11 C 288.55 208.39 286.13 208.30 283.73 208.33 C 285.89 206.29 288.48 204.35 289.35 201.36 C 290.44 197.87 290.88 194.22 291.55 190.64 C 294.70 172.71 297.76 154.77 301.15 136.89 Z" />
</g>
</svg>
